<?xml version="1.0" encoding="iso-8859-1"?>
<!-- Generator: Adobe Illustrator 19.0.0, SVG Export Plug-In . SVG Version: 6.00 Build 0)  -->
<svg version="1.1" id="Capa_1" xmlns="http://www.w3.org/2000/svg" xmlns:xlink="http://www.w3.org/1999/xlink" x="0px" y="0px"
	 viewBox="0 0 512.001 512.001" style="enable-background:new 0 0 512.001 512.001;" xml:space="preserve">
<g>
	<g>
		<path d="M506.352,5.648c-39.256-13.092-81.806-3.045-111.068,26.217L288.379,138.768L65.64,43.31L23.213,85.735l180.313,137.886
			l-97.46,97.46l-63.64-21.215L0,342.294l106.066,63.64L169.706,512l42.426-42.427l-21.213-63.638l97.46-97.46l137.886,180.313
			l42.426-42.427l-95.458-222.739l106.904-106.904C509.399,87.456,519.446,44.906,506.352,5.648z"/>
	</g>
</g>
<g>
	<g>
		<path d="M479.297,266.048c-11.716-11.717-30.71-11.717-42.427,0l-8.967,8.967l25.455,59.398l25.939-25.939
			C491.012,296.757,491.012,277.764,479.297,266.048z"/>
	</g>
</g>
<g>
	<g>
		<path d="M245.952,32.701c-11.715-11.717-30.71-11.717-42.426,0l-25.939,25.94l59.398,25.455l8.967-8.969
			C257.669,63.412,257.669,44.418,245.952,32.701z"/>
	</g>
</g>
<g>
</g>
<g>
</g>
<g>
</g>
<g>
</g>
<g>
</g>
<g>
</g>
<g>
</g>
<g>
</g>
<g>
</g>
<g>
</g>
<g>
</g>
<g>
</g>
<g>
</g>
<g>
</g>
<g>
</g>
</svg>
